<?xml version="1.0" standalone="no"?>
<!DOCTYPE svg PUBLIC "-//W3C//DTD SVG 20010904//EN"
 "http://www.w3.org/TR/2001/REC-SVG-20010904/DTD/svg10.dtd">
<svg version="1.0" xmlns="http://www.w3.org/2000/svg"
 width="600.000000pt" height="600.000000pt" viewBox="0 0 600.000000 600.000000"
 preserveAspectRatio="xMidYMid meet">

<g transform="translate(0.000000,600.000000) scale(0.100000,-0.100000)"
fill="#000000" stroke="none">
<path d="M2745 5989 c-1269 -107 -2347 -1026 -2653 -2259 -100 -400 -116 -799
-51 -1210 128 -807 590 -1532 1272 -1997 66 -46 122 -82 123 -80 1 1 14 60 28
132 37 190 65 322 82 389 14 55 14 60 -3 80 -40 45 -45 59 -11 27 l37 -34 15
37 c12 30 20 36 44 36 43 0 218 -47 280 -75 48 -22 52 -27 52 -58 0 -84 -85
-296 -135 -336 -30 -23 -41 -27 -110 -36 l-50 -7 72 -18 c93 -24 118 -38 175
-97 69 -72 126 -167 154 -259 18 -62 30 -85 45 -89 11 -4 22 -5 25 -3 2 3 -8
39 -22 82 -28 82 -112 219 -146 237 -24 13 -22 31 17 139 15 41 41 133 59 204
28 111 36 131 58 142 25 13 37 51 87 279 9 38 9 37 10 -25 1 -82 32 -195 60
-221 11 -11 21 -21 21 -22 0 -1 9 -49 20 -105 16 -80 25 -108 43 -123 12 -10
17 -18 11 -19 -6 0 -11 -19 -11 -42 0 -24 -3 -101 -6 -172 -7 -142 -6 -148 50
-171 33 -14 37 -35 8 -35 -7 0 -16 -6 -18 -12 -4 -10 -6 -10 -6 0 -1 7 -14 12
-31 12 -27 0 -30 -3 -30 -29 0 -16 7 -36 15 -44 21 -21 115 -51 126 -40 8 8
20 55 39 163 5 25 9 71 9 103 1 74 18 74 27 -1 8 -68 11 -88 19 -113 4 -12 2
-19 -7 -20 -7 0 -3 -4 9 -9 13 -5 21 -15 19 -22 -2 -7 -7 -28 -10 -45 -5 -33
-5 -33 34 -33 34 0 48 -8 96 -51 41 -37 59 -48 68 -40 7 6 34 14 60 17 46 7
46 6 46 -22 0 -16 -7 -38 -15 -48 -12 -16 -17 -17 -30 -6 -18 15 -28 9 -20
-12 6 -16 54 -28 113 -28 31 0 33 2 28 31 -4 25 -2 28 9 19 8 -7 32 -13 54
-14 22 -1 43 -5 47 -9 15 -15 24 -6 14 12 -13 26 -13 91 1 91 6 0 19 -5 31
-11 11 -6 34 -12 51 -14 18 -1 66 -6 109 -10 100 -9 199 1 191 21 -4 11 10 14
77 14 77 0 84 -2 109 -29 l26 -28 110 28 c61 15 121 32 135 38 l25 10 -27 0
c-16 1 -38 11 -49 22 l-22 22 39 32 c21 18 44 30 51 28 20 -8 26 22 18 92 -5
47 -11 65 -21 65 -8 0 -17 7 -20 15 -4 8 -13 15 -20 15 -12 0 -12 5 1 30 18
34 20 110 3 110 -18 0 -2 284 27 457 13 84 28 184 31 224 6 65 9 70 21 53 24
-31 109 -214 133 -284 13 -36 27 -74 33 -85 9 -18 9 -19 -6 -6 -10 7 -17 20
-17 28 0 13 -3 13 -15 3 -8 -7 -13 -16 -10 -19 2 -4 -3 -8 -11 -8 -11 0 -13 8
-10 29 5 33 -6 35 -40 9 -29 -23 -31 -31 -12 -42 10 -6 10 -11 1 -20 -8 -8
-13 -6 -17 8 -3 10 -15 19 -27 20 -14 1 -19 -3 -15 -12 3 -8 -1 -21 -9 -29
-10 -10 -17 -49 -21 -128 -6 -99 -3 -138 26 -318 40 -248 47 -280 64 -280 19
0 132 43 225 86 69 31 78 39 94 78 10 24 27 52 38 62 24 22 24 40 -2 89 -11
22 -40 86 -65 143 -86 195 -94 255 -42 304 54 51 190 108 290 123 62 9 68 2
143 -194 34 -87 68 -170 77 -183 8 -13 19 -38 23 -57 4 -19 11 -29 16 -24 5 5
1 29 -10 58 -27 68 -121 399 -121 424 0 4 13 8 29 7 20 -1 26 -4 20 -12 -5 -6
-7 -13 -4 -15 2 -3 31 -99 64 -213 33 -115 63 -211 65 -214 9 -9 183 147 321
289 364 373 620 835 746 1344 119 481 115 1007 -10 1487 -251 960 -976 1744
-1917 2071 -390 135 -828 191 -1239 156z m113 -484 c-3 -3 -9 2 -12 12 -6 14
-5 15 5 6 7 -7 10 -15 7 -18z m-154 -67 c-122 -112 -274 -261 -271 -265 2 -2
18 2 35 8 17 6 41 9 54 7 22 -4 22 -5 3 -13 -63 -25 -149 -69 -165 -83 -9 -10
-34 -30 -54 -45 -45 -35 -74 -90 -91 -176 -7 -36 -14 -57 -14 -45 -1 11 -7 26
-13 33 -11 10 -10 14 5 22 33 19 19 37 -35 44 -85 11 -122 4 -126 -23 -2 -12
-12 -27 -23 -33 -18 -9 -20 -17 -14 -72 3 -34 9 -70 11 -79 8 -28 -23 -22 -52
9 l-26 28 7 -30 c15 -69 46 -164 55 -170 6 -3 10 -17 10 -31 0 -17 -5 -24 -20
-24 -31 0 -25 -18 40 -115 59 -89 66 -108 54 -152 -11 -41 -24 -24 -22 30 2
55 -6 72 -81 174 -28 39 -32 51 -24 72 9 26 -4 116 -26 174 -6 16 -11 42 -11
58 0 29 1 30 34 23 l34 -6 -13 39 c-23 63 -20 83 14 83 25 0 30 4 33 28 l3 27
102 3 c101 3 101 3 108 30 10 41 53 99 99 132 23 17 104 92 181 168 119 117
259 240 274 242 3 0 -31 -33 -75 -72z m-294 -368 c-8 -5 -22 -10 -30 -10 -13
0 -13 1 0 10 8 5 22 10 30 10 13 0 13 -1 0 -10z m1419 -126 c14 -12 -19 -1
-35 12 -18 14 -18 14 6 3 14 -6 27 -13 29 -15z m-1227 -383 c274 -11 303 -16
347 -65 14 -14 31 -26 38 -26 11 0 13 -10 7 -45 -8 -59 11 -90 63 -100 28 -6
33 -9 20 -14 -28 -10 -68 -116 -74 -197 l-5 -72 -72 -5 c-39 -3 -80 -8 -92
-12 -19 -6 -22 -2 -28 34 -12 78 -46 151 -80 173 -27 17 -43 19 -136 14 -73
-3 -122 -12 -160 -26 -102 -40 -210 -71 -222 -64 -8 5 -9 49 -4 153 7 160 16
205 48 246 18 23 26 26 57 21 20 -3 152 -10 293 -15z m1066 -198 c6 -59 10
-108 8 -110 -9 -10 -34 12 -61 55 -17 26 -42 61 -57 78 -28 32 -28 44 3 44 10
0 22 6 26 13 11 18 44 36 58 31 6 -3 16 -53 23 -111z m-26 -199 c10 -17 20
-60 23 -95 3 -35 1 -54 -3 -42 -4 12 -17 33 -28 46 -12 14 -25 35 -29 48 -4
13 -14 33 -21 44 -20 29 -17 37 13 33 18 -2 33 -14 45 -34z m-1242 -10 c-80
-24 -120 -46 -120 -66 0 -4 19 4 42 19 39 27 48 28 180 31 100 3 143 0 154 -8
16 -14 16 -15 32 23 6 15 16 27 22 27 34 0 65 -178 50 -294 -13 -101 -72 -214
-124 -240 -50 -25 -205 -33 -302 -17 -102 17 -120 36 -134 134 -14 109 -13
130 5 123 21 -8 20 33 -2 49 -24 18 -24 106 0 133 37 41 95 72 167 91 108 29
130 24 30 -5z m1023 -12 c68 -30 97 -76 111 -174 13 -91 23 -91 32 -1 5 48 3
67 -14 99 -11 22 -28 46 -36 53 -9 8 -16 20 -16 28 0 23 37 -3 56 -39 9 -18
21 -68 26 -112 5 -44 10 -81 11 -83 2 -1 17 3 35 9 17 7 34 9 37 6 3 -3 1 -41
-4 -84 -11 -88 -15 -93 -98 -124 -92 -34 -249 -50 -331 -34 -35 7 -56 44 -51
92 3 21 -5 39 -28 65 -60 68 -53 170 18 251 53 60 92 78 156 72 28 -2 71 -13
96 -24z m474 -29 c-3 -10 -5 -4 -5 12 0 17 2 24 5 18 2 -7 2 -21 0 -30z m-7
-30 c0 -5 -9 -19 -20 -33 -15 -19 -20 -21 -20 -8 0 9 -3 23 -6 32 -5 12 0 16
20 16 14 0 26 -3 26 -7z m248 -19 c83 -64 113 -227 63 -343 -26 -62 -70 -131
-82 -131 -5 0 1 17 13 37 14 23 17 33 8 28 -19 -11 -54 -15 -67 -7 -7 5 -9 42
-5 104 l5 97 23 -16 c13 -8 21 -20 17 -26 -4 -6 0 -8 10 -4 10 3 17 3 17 -2 0
-5 9 -11 19 -14 19 -5 22 -20 10 -42 -14 -24 -17 -45 -9 -50 5 -3 15 14 21 37
48 167 40 218 -43 299 -62 60 -62 80 0 33z m-1159 -131 c17 -16 41 -56 55 -93
13 -36 27 -74 32 -84 5 -14 4 -17 -4 -12 -9 5 -12 -10 -12 -54 0 -70 -21 -109
-85 -160 -38 -30 -52 -35 -175 -61 -79 -17 -83 -32 -18 -75 116 -78 298 -106
412 -63 61 22 116 78 116 117 0 23 -32 95 -55 122 -7 8 -16 25 -19 37 -7 22
-6 22 126 21 73 0 170 5 216 11 45 7 87 9 92 6 13 -8 5 -51 -16 -83 -11 -16
-17 -48 -18 -91 -1 -52 -8 -81 -34 -136 -18 -38 -43 -83 -56 -100 -43 -57
-126 -197 -132 -223 -4 -15 -10 -31 -14 -37 -4 -5 -20 -43 -35 -84 -38 -100
-106 -172 -185 -195 -105 -30 -330 -37 -395 -12 -11 5 -6 -1 10 -13 17 -12 46
-26 65 -31 27 -7 40 -20 60 -57 14 -26 53 -85 88 -132 57 -77 62 -87 62 -136
0 -42 -6 -60 -31 -95 -41 -56 -34 -82 29 -113 26 -13 68 -30 95 -37 54 -15 51
-27 -14 -61 -71 -36 -241 -16 -225 27 10 25 -11 89 -74 224 -65 137 -71 160
-96 333 l-16 118 -39 25 c-21 13 -41 24 -43 24 -12 0 -45 -114 -55 -190 -19
-136 22 -323 108 -495 72 -143 78 -185 26 -165 -24 9 -25 8 -25 -33 1 -47 23
-97 34 -78 4 6 2 27 -4 47 -13 39 -14 39 17 48 18 6 25 1 38 -23 17 -34 11
-40 -17 -14 -25 22 -23 2 3 -26 12 -12 27 -20 35 -17 20 8 91 -137 103 -211 6
-32 19 -101 31 -153 11 -52 20 -107 20 -122 0 -81 44 -12 154 244 41 95 106
238 144 318 38 80 73 155 77 168 4 15 12 21 22 18 8 -3 23 -6 32 -6 15 0 19
-12 25 -77 4 -43 12 -104 18 -135 9 -44 9 -61 0 -70 -8 -8 -15 -8 -28 3 -15
12 -17 12 -13 0 3 -8 -8 -28 -24 -45 -16 -17 -56 -65 -90 -106 -34 -41 -105
-124 -158 -183 -147 -164 -205 -290 -197 -432 2 -54 8 -79 22 -94 45 -50 126
-4 117 66 -1 6 3 14 9 18 5 3 10 21 10 39 0 20 8 40 20 51 18 17 19 16 25 -8
6 -23 10 -25 32 -16 33 12 46 2 39 -32 -5 -28 -4 -29 30 -29 26 0 35 -4 31
-13 -3 -7 -11 -49 -18 -92 -9 -61 -19 -85 -41 -111 -16 -18 -28 -37 -26 -41 2
-4 -7 -12 -19 -18 -18 -8 -23 -18 -23 -47 0 -20 -3 -44 -6 -53 -6 -14 0 -15
37 -11 24 3 76 8 114 11 39 3 89 8 113 12 23 3 42 1 42 -4 0 -16 -185 -164
-261 -208 -65 -38 -75 -42 -86 -28 -11 14 -16 13 -57 -2 -25 -10 -54 -15 -64
-13 -15 4 -24 -3 -36 -29 -9 -18 -17 -44 -18 -56 -1 -12 -4 16 -7 63 l-6 85
-42 -3 c-41 -2 -42 -2 -53 38 -6 23 -18 44 -26 47 -8 3 -28 25 -44 48 -26 39
-28 44 -12 50 16 6 16 7 0 16 -14 8 -123 155 -170 230 -10 15 -18 47 -19 73
-5 81 -19 74 -19 -9 0 -94 -12 -91 -54 17 -30 76 -31 88 -12 88 10 0 -12 43
-59 118 -163 258 -183 301 -221 465 -35 154 -65 237 -83 237 -6 0 -11 -12 -11
-26 0 -15 -5 -56 -12 -91 -9 -50 -9 -69 0 -84 15 -23 15 -52 2 -65 -6 -6 -12
-30 -15 -55 -3 -24 -11 -75 -16 -114 -6 -38 -12 -86 -15 -105 -2 -19 -7 -51
-11 -70 -3 -19 -5 -39 -4 -44 1 -4 -15 -6 -36 -2 -33 5 -35 4 -15 -6 13 -7 21
-17 17 -26 -3 -7 -5 -20 -5 -27 0 -8 -13 -29 -30 -48 l-29 -34 -173 44 c-164
42 -200 46 -240 28 -27 -11 -23 8 31 167 27 79 97 285 156 458 176 518 196
557 318 634 74 46 213 115 352 176 160 69 197 94 239 153 39 56 39 56 19 74
-31 27 -222 268 -269 340 -22 34 -54 91 -70 126 l-29 63 -50 -1 c-38 0 -58 6
-84 25 -49 36 -127 143 -152 209 -45 119 -32 263 30 330 27 29 35 32 82 29
l53 -3 14 -85 c8 -47 22 -98 32 -115 9 -16 20 -42 24 -57 9 -41 65 -64 184
-79 79 -10 120 -10 180 -2 111 16 129 27 164 97 17 34 37 68 44 77 8 9 25 44
39 79 34 87 57 110 112 110 33 0 50 -6 72 -27z m781 -133 c7 -25 19 -50 26
-56 42 -34 -14 -409 -72 -480 -9 -10 -13 -14 -10 -9 2 6 14 47 26 90 27 102
27 214 0 353 -17 83 -20 124 -14 182 l7 75 12 -55 c7 -30 19 -75 25 -100z
m-104 -85 c-33 -25 -118 -53 -181 -59 -59 -6 -59 -6 21 13 44 11 98 28 120 39
47 24 66 27 40 7z m-530 -40 c13 -13 13 -15 1 -15 -8 0 -17 7 -21 15 -3 8 -3
15 0 15 3 0 12 -7 20 -15z m27 -37 c9 -7 13 -18 9 -24 -5 -8 -13 -4 -25 12
-19 26 -11 32 16 12z m225 5 c-10 -2 -28 -2 -40 0 -13 2 -5 4 17 4 22 1 32 -1
23 -4z m122 -844 c82 -117 93 -129 118 -136 48 -11 352 -143 482 -208 69 -35
137 -76 151 -92 67 -73 150 -221 232 -413 25 -58 56 -130 70 -160 14 -30 36
-82 50 -115 14 -33 49 -114 77 -180 124 -288 144 -346 99 -294 -11 13 -34 49
-51 81 -17 32 -35 58 -40 58 -6 0 -8 7 -5 14 4 9 -1 17 -12 21 -21 6 -44 52
-35 67 4 7 2 8 -4 4 -7 -4 -13 7 -17 31 -3 21 -17 63 -30 93 -46 106 -85 205
-85 217 0 7 -7 13 -15 13 -9 0 -15 9 -15 21 0 25 -101 283 -129 330 -12 19
-25 44 -30 56 -5 11 -15 24 -20 28 -6 3 -11 21 -11 38 l-1 32 -20 -24 c-11
-13 -24 -31 -29 -40 -20 -36 -21 2 -2 49 20 49 18 62 -6 38 -9 -9 -20 -3 -46
25 -19 20 -38 37 -41 37 -4 0 -27 14 -52 32 -26 17 -94 52 -152 78 -58 26
-157 71 -218 99 -62 28 -115 51 -118 51 -12 0 -74 70 -90 101 -10 19 -28 49
-42 67 -15 20 -19 32 -11 32 7 0 29 -23 48 -51z m-125 -135 c-7 -87 -17 -106
-42 -82 -21 21 -8 130 20 165 27 34 31 21 22 -83z m246 -489 c-1 -48 -4 -92
-8 -98 -11 -18 -40 104 -36 148 7 64 11 71 29 53 13 -12 16 -36 15 -103z m439
-347 c0 -6 9 -26 21 -44 20 -33 21 -34 51 -18 28 15 30 14 35 -5 3 -12 8 -21
12 -21 4 0 22 -13 41 -28 l34 -29 -39 -26 -39 -26 37 6 c24 4 37 2 37 -6 0 -6
7 -11 15 -11 7 0 18 -7 22 -15 11 -19 83 -56 94 -49 5 3 9 -6 9 -20 0 -17 9
-30 28 -42 29 -16 48 -46 76 -116 17 -44 17 -45 -81 -94 -72 -36 -67 -36 36 2
61 22 88 24 76 3 -3 -5 6 -21 20 -36 23 -25 50 -73 43 -77 -79 -40 -196 -102
-203 -108 -5 -5 -35 -23 -65 -41 -30 -18 -65 -39 -76 -47 -19 -12 -24 -11 -37
1 -26 26 -49 81 -44 105 5 28 0 30 -24 8 -16 -14 -18 -14 -27 3 -6 10 -22 61
-36 114 -14 52 -34 117 -46 144 -12 28 -21 61 -20 75 0 14 1 34 1 45 1 11 -8
52 -18 90 -21 76 -19 96 32 232 17 46 35 62 35 31z m-273 -94 c-3 -3 -12 -4
-19 -1 -8 3 -5 6 6 6 11 1 17 -2 13 -5z m-240 -80 c7 -18 -23 -191 -37 -213
-4 -8 -15 -11 -24 -8 -23 9 -21 101 4 152 11 22 19 47 20 56 0 31 26 40 37 13z
m293 4 c0 -32 -59 -97 -92 -104 -93 -18 -179 9 -183 57 -5 51 17 59 152 59 92
0 123 -3 123 -12z m-342 -357 l43 -1 -21 -22 c-11 -12 -20 -31 -21 -42 -1 -18
-2 -17 -8 4 -7 25 -8 24 -15 -7 -9 -38 -18 -39 -110 -22 -32 6 -60 8 -63 6 -6
-7 154 -34 216 -36 8 -1 12 -4 8 -7 -5 -6 -50 -11 -146 -17 -20 -2 -39 -10
-45 -20 -6 -10 -26 -39 -44 -65 l-33 -47 6 120 c3 66 8 134 11 151 l4 30 88
-12 c48 -7 106 -13 130 -13z m-444 -6 c-10 -7 -15 -19 -11 -29 4 -10 1 -16 -8
-16 -8 0 -15 9 -15 19 0 24 28 54 41 45 6 -3 3 -11 -7 -19z m-15 -287 c14 -24
14 -28 -3 -47 -24 -26 -62 -27 -76 -2 -14 28 -13 38 11 62 26 26 49 21 68 -13z
m961 -118 c0 -5 -7 -10 -15 -10 -8 0 -15 5 -15 10 0 6 7 10 15 10 8 0 15 -4
15 -10z m-677 -125 c-3 -9 -8 -14 -10 -11 -3 3 -2 9 2 15 9 16 15 13 8 -4z
m262 -19 c-9 -13 -34 -36 -55 -50 l-40 -26 0 44 0 45 43 4 c23 2 48 4 55 5 9
2 8 -5 -3 -22z m-293 -51 c-2 -14 -10 -25 -18 -25 -11 0 -11 5 -2 25 6 14 14
25 18 25 4 0 5 -11 2 -25z m-312 -575 c-11 -7 -12 -12 -4 -20 8 -8 16 -7 27 4
9 9 18 16 21 16 13 0 5 -28 -13 -44 -23 -21 -57 -14 -66 14 -8 26 1 40 28 40
18 0 19 -2 7 -10z"/>
<path d="M2570 4451 c-89 -33 -169 -73 -227 -112 -30 -21 -51 -48 -74 -94 -18
-36 -30 -68 -27 -71 3 -3 23 2 44 11 81 35 293 103 387 125 l97 22 0 39 c0 72
-34 110 -98 109 -15 -1 -61 -14 -102 -29z"/>
<path d="M2462 4059 c-23 -12 -51 -34 -62 -49 -29 -41 -24 -49 8 -14 41 45 75
64 129 74 l48 8 -40 1 c-23 0 -58 -8 -83 -20z"/>
<path d="M2569 4047 c-45 -29 -73 -87 -65 -131 15 -78 78 -130 132 -110 21 7
32 23 51 79 23 67 24 68 19 25 -2 -25 -7 -54 -11 -65 -4 -13 -1 -12 9 5 19 31
20 126 2 158 -14 27 -64 62 -87 62 -9 0 -31 -10 -50 -23z m38 -33 c4 -11 -44
-41 -52 -33 -2 3 3 15 11 28 16 22 35 24 41 5z"/>
<path d="M2483 3733 c15 -2 37 -2 50 0 12 2 0 4 -28 4 -27 0 -38 -2 -22 -4z"/>
<path d="M3235 4096 c-62 -28 -99 -90 -86 -147 17 -75 44 -102 101 -101 105 2
168 135 98 209 -19 21 -70 54 -80 53 -2 -1 -16 -7 -33 -14z m0 -64 c-21 -18
-30 -21 -33 -12 -6 17 36 52 51 43 6 -4 -1 -16 -18 -31z m112 -64 c-3 -8 -6
-5 -6 6 -1 11 2 17 5 13 3 -3 4 -12 1 -19z m-16 -50 c-15 -39 -40 -58 -75 -58
-32 0 -62 20 -50 33 3 3 21 3 39 0 28 -4 39 0 62 24 33 34 37 34 24 1z"/>
<path d="M3513 3854 c-12 -13 -18 -24 -14 -24 10 0 45 39 40 44 -2 3 -14 -6
-26 -20z"/>
<path d="M2575 3579 c-27 -6 -90 -7 -140 -4 l-90 5 55 -16 c69 -20 166 -20
213 0 37 15 48 27 25 25 -7 -1 -35 -5 -63 -10z"/>
<path d="M3436 3451 c-36 -69 -94 -115 -202 -157 -119 -46 -220 -63 -369 -64
-139 0 -239 22 -317 70 -27 16 -48 25 -48 20 0 -13 88 -85 134 -110 l41 -22
-30 26 -30 25 25 1 c14 0 59 -7 100 -16 64 -13 98 -14 230 -4 85 6 175 15 200
21 96 22 100 22 100 6 0 -8 -17 -22 -37 -31 -21 -9 -47 -22 -58 -28 -11 -6
-65 -19 -120 -29 -55 -9 -84 -18 -65 -18 128 -2 309 77 410 178 131 134 155
181 90 181 -26 0 -33 -7 -54 -49z"/>
<path d="M2420 3360 c0 -11 48 -25 56 -17 4 3 3 10 -1 16 -8 14 -55 14 -55 1z"/>
<path d="M2778 3153 c7 -3 16 -2 19 1 4 3 -2 6 -13 5 -11 0 -14 -3 -6 -6z"/>
<path d="M2848 3143 c12 -2 30 -2 40 0 9 3 -1 5 -23 4 -22 0 -30 -2 -17 -4z"/>
<path d="M2533 2195 c-21 -15 -29 -43 -61 -208 -10 -47 -9 -48 9 -31 18 16 19
16 19 -12 0 -16 -7 -54 -15 -84 -8 -30 -15 -58 -15 -63 0 -16 58 29 123 96 65
68 68 70 83 51 15 -19 15 -19 8 1 -5 11 -9 45 -9 75 -2 144 -69 226 -142 175z"/>
<path d="M2865 1568 c-6 -15 -21 -24 -38 -26 -23 -3 -26 -6 -16 -18 6 -8 19
-14 28 -14 24 0 65 46 58 64 -9 22 -21 20 -32 -6z"/>
<path d="M2485 1495 c8 -67 20 -95 71 -163 67 -90 161 -159 157 -117 -1 6 4
16 10 24 9 10 7 16 -6 26 -9 7 -17 15 -17 18 0 7 -38 50 -122 139 -27 28 -48
52 -48 54 0 2 -12 20 -26 41 l-26 38 7 -60z"/>
<path d="M2906 1467 c3 -10 9 -15 12 -12 3 3 0 11 -7 18 -10 9 -11 8 -5 -6z"/>
<path d="M2850 1460 c0 -5 9 -10 20 -10 11 0 20 5 20 10 0 6 -9 10 -20 10 -11
0 -20 -4 -20 -10z"/>
<path d="M2921 1424 c0 -11 3 -14 6 -6 3 7 2 16 -1 19 -3 4 -6 -2 -5 -13z"/>
<path d="M2931 1355 c-1 -16 -4 -54 -7 -82 -5 -35 -3 -53 4 -53 24 0 32 94 12
143 -8 20 -9 20 -9 -8z"/>
<path d="M2780 1260 c0 -29 31 -134 44 -150 7 -8 18 -30 26 -47 7 -19 20 -33
29 -33 10 0 12 3 5 8 -6 4 -32 59 -57 122 -26 63 -47 108 -47 100z"/>
<path d="M2711 1196 c-7 -9 -8 -15 -2 -18 5 -1 11 -9 13 -17 5 -21 40 -61 54
-61 6 0 15 7 18 16 6 17 -15 44 -34 44 -7 0 -10 7 -6 15 8 21 -28 39 -43 21z"/>
<path d="M2510 1098 c0 -49 11 -58 70 -58 22 1 23 2 7 11 -10 6 -31 29 -47 51
l-30 41 0 -45z"/>
<path d="M2550 999 c0 -14 47 -59 61 -59 17 0 9 26 -14 48 -25 24 -47 29 -47
11z"/>
<path d="M2945 852 c-8 -22 6 -31 33 -21 29 11 28 25 -2 31 -16 3 -27 0 -31
-10z"/>
<path d="M3052 795 c-9 -20 -18 -24 -46 -23 -22 1 -33 5 -29 12 3 6 -8 -2 -25
-18 -37 -34 -40 -46 -13 -53 23 -6 34 -39 20 -65 -9 -16 -7 -17 16 -6 39 17
75 -3 75 -42 0 -24 -6 -33 -27 -41 -22 -8 -32 -6 -55 11 -32 23 -37 13 -10
-20 24 -30 70 -30 94 0 14 17 19 38 17 79 0 31 2 86 6 124 8 70 -2 88 -23 42z"/>
<path d="M2870 665 c-12 -14 -12 -18 1 -25 10 -7 15 -5 17 5 6 28 -3 38 -18
20z"/>
<path d="M4066 1007 c3 -10 9 -15 12 -12 3 3 0 11 -7 18 -10 9 -11 8 -5 -6z"/>
<path d="M4485 561 c-22 -10 -61 -49 -54 -56 3 -2 24 12 48 31 43 34 45 40 6
25z"/>
<path d="M2390 84 l-35 -14 40 6 c22 3 47 10 55 15 25 14 -20 10 -60 -7z"/>
</g>
</svg>
